<svg xmlns="http://www.w3.org/2000/svg" viewBox="0 0 145 45">
  <defs>
    <style>
      .a {
        fill: none;
        stroke: #cfe5f2;
        stroke-miterlimit: 10;
        stroke-width: 3px;
      }

      .b {
        fill: #cfe5f2;
      }
    </style>
  </defs>
  <title>Buttons_web</title>
  <path class="a" d="M122.5,2.5a20,20,0,0,1,0,40H22.5a20,20,0,0,1,0-40Z"/>
  <g>
    <path class="b" d="M11.6,14.1a.555.555,0,0,1,.025-.188.277.277,0,0,1,.063-.1.174.174,0,0,1,.1-.05.66.66,0,0,1,.138-.013h7.3v.575c-.149.017-.333.041-.55.075s-.437.071-.662.113-.434.079-.625.112l-.437.075-.076.1q.124.349.537,1.45t.976,2.55q.563,1.45,1.188,3.1T20.761,25q.563,1.45.975,2.537T22.273,29h-1q.126-.325.488-1.25t.85-2.175q.488-1.249,1.025-2.663T24.673,20.2q.5-1.3.9-2.338c.265-.691.458-1.195.574-1.512a1.5,1.5,0,0,0,.137-.837,1.018,1.018,0,0,0-.325-.6,1.629,1.629,0,0,0-.649-.349,2.963,2.963,0,0,0-.838-.113H24.1a.739.739,0,0,1-.138-.012.2.2,0,0,1-.1-.05.287.287,0,0,1-.063-.113.572.572,0,0,1-.025-.175.555.555,0,0,1,.025-.188.277.277,0,0,1,.063-.1.18.18,0,0,1,.1-.05.66.66,0,0,1,.138-.013h3.875l.15.25L21.5,31.25h-1.25l-5.85-15a4.224,4.224,0,0,0-.787-1.375A1.767,1.767,0,0,0,12.3,14.45h-.375a.739.739,0,0,1-.138-.012.194.194,0,0,1-.1-.05.287.287,0,0,1-.063-.113A.572.572,0,0,1,11.6,14.1Z"/>
    <path class="b" d="M43.428,31.05l-.125.2H37.577a.292.292,0,0,1-.325-.349.519.519,0,0,1,.026-.188.294.294,0,0,1,.062-.1.2.2,0,0,1,.1-.049.733.733,0,0,1,.137-.013h.375a2.256,2.256,0,0,0,1.476-.45q.549-.45.2-1.449L35.2,16.25h.826L31.077,30.225q0,.026.039.051c.024.016.037.033.037.049l2.275.35v.575h-5.4a.351.351,0,1,1,0-.7H28.4a1.76,1.76,0,0,0,1.338-.462,4.174,4.174,0,0,0,.787-1.413l4.625-12.7a1.432,1.432,0,0,0,.075-1.125.7.7,0,0,0-.675-.4h-.375a.724.724,0,0,1-.138-.012.2.2,0,0,1-.1-.05.3.3,0,0,1-.063-.113.574.574,0,0,1-.024-.175.292.292,0,0,1,.325-.35h3Zm-10.75-6h6.649l.326,1.25H32.327Z"/>
    <path class="b" d="M57.725,30.75a.617.617,0,0,0,.413-.138.78.78,0,0,0,.237-.387,1.768,1.768,0,0,0,.063-.574,3.292,3.292,0,0,0-.112-.7,1.549,1.549,0,0,1,.062-1.137.894.894,0,0,1,.862-.438,1.029,1.029,0,0,1,.488.1.892.892,0,0,1,.3.25.993.993,0,0,1,.164.338,1.509,1.509,0,0,1,.049.387,4.18,4.18,0,0,1-.187,1.3,2.725,2.725,0,0,1-.526.963,2.185,2.185,0,0,1-.812.587,2.733,2.733,0,0,1-1.075.2,2.639,2.639,0,0,1-1.787-.537,3.459,3.459,0,0,1-.938-1.363,8.275,8.275,0,0,1-.474-1.824,14.289,14.289,0,0,0-.426-1.926,8.144,8.144,0,0,0-.324-.9,1.886,1.886,0,0,0-.476-.663,2.009,2.009,0,0,0-.774-.4,4.512,4.512,0,0,0-1.226-.138h-1.05v6.475a.182.182,0,0,1,.037.051.232.232,0,0,0,.038.049,3.718,3.718,0,0,1,.388.05c.208.033.433.071.675.112s.471.08.687.113a3.572,3.572,0,0,0,.425.051v.6h-7.05a.651.651,0,0,1-.137-.013.176.176,0,0,1-.1-.049.274.274,0,0,1-.062-.113.51.51,0,0,1-.026-.174.293.293,0,0,1,.325-.351h.375a1.674,1.674,0,0,0,1.287-.425,2.184,2.184,0,0,0,.388-1.474V16.35a2.185,2.185,0,0,0-.388-1.475,1.674,1.674,0,0,0-1.287-.425h-.375a.351.351,0,0,1-.237-.075.347.347,0,0,1-.088-.275.505.505,0,0,1,.026-.188.262.262,0,0,1,.062-.1.177.177,0,0,1,.1-.05.651.651,0,0,1,.137-.013h6.451a8.944,8.944,0,0,1,2.612.362,6.112,6.112,0,0,1,2.024,1.026,4.713,4.713,0,0,1,1.3,1.574,4.45,4.45,0,0,1,.462,2.038A4.839,4.839,0,0,1,57.1,22.013a5.122,5.122,0,0,1-3.25,1.638l-.225-.051a3.969,3.969,0,0,1,2.225.588,2.345,2.345,0,0,1,.925,1.338,5.578,5.578,0,0,1,.2,1.586q0,.914.013,1.713a6.733,6.733,0,0,0,.137,1.363C57.208,30.563,57.409,30.75,57.725,30.75Zm-4.524-8a2.188,2.188,0,0,0,.9-.2,2.1,2.1,0,0,0,.812-.675A3.8,3.8,0,0,0,55.5,20.65a6.63,6.63,0,0,0,.225-1.875v-.05a6.748,6.748,0,0,0-.175-1.638,3.826,3.826,0,0,0-.487-1.162,2.36,2.36,0,0,0-.788-.75A4.124,4.124,0,0,0,53.2,14.75a6.13,6.13,0,0,0-1.239-.2,5.624,5.624,0,0,0-.949.025,6.167,6.167,0,0,0-.838.175v8H53.2Z"/>
    <path class="b" d="M64.928,16.35a2.185,2.185,0,0,0-.388-1.475,1.712,1.712,0,0,0-1.312-.425h-.375a.545.545,0,0,1-.125-.012.2.2,0,0,1-.087-.05.287.287,0,0,1-.063-.113.543.543,0,0,1-.025-.175.531.531,0,0,1,.025-.188.277.277,0,0,1,.063-.1.171.171,0,0,1,.087-.05.489.489,0,0,1,.125-.013h6.8v.65c-.017,0-.133.017-.35.05s-.459.067-.725.1-.617.084-1.05.15l-.1.125v15.35l.1.125q.649.1,1.05.15t.725.1c.217.034.333.05.35.05v.65h-6.8a.489.489,0,0,1-.125-.013.169.169,0,0,1-.087-.049.287.287,0,0,1-.063-.113.537.537,0,0,1-.025-.174.523.523,0,0,1,.025-.188.3.3,0,0,1,.063-.1.184.184,0,0,1,.087-.049.539.539,0,0,1,.125-.013h.375a1.712,1.712,0,0,0,1.312-.425,2.184,2.184,0,0,0,.388-1.474Z"/>
    <path class="b" d="M86.963,31.05l-.125.2H81.113a.355.355,0,0,1-.238-.075.351.351,0,0,1-.088-.274.519.519,0,0,1,.026-.188.294.294,0,0,1,.062-.1.2.2,0,0,1,.1-.049.735.735,0,0,1,.138-.013h.375a2.255,2.255,0,0,0,1.475-.45q.549-.45.2-1.449l-4.424-12.4h.825l-4.95,13.975c0,.017.012.034.038.051s.037.033.037.049l2.275.35v.575h-5.4a.351.351,0,1,1,0-.7h.375a1.76,1.76,0,0,0,1.338-.462,4.174,4.174,0,0,0,.787-1.413l4.625-12.7a1.432,1.432,0,0,0,.075-1.125.7.7,0,0,0-.675-.4h-.375a.713.713,0,0,1-.137-.012.205.205,0,0,1-.1-.05.314.314,0,0,1-.063-.113.574.574,0,0,1-.024-.175.348.348,0,0,1,.087-.275.355.355,0,0,1,.238-.075h3Zm-10.75-6h6.65l.325,1.25H75.863Z"/>
    <path class="b" d="M88.635,14.1a.494.494,0,0,1,.013-.125.789.789,0,0,1,.025-.087.117.117,0,0,1,.05-.063.353.353,0,0,1,.075-.038l.074-.024a.267.267,0,0,1,.088-.013h8.276a6.106,6.106,0,0,1,2.074.325,4.369,4.369,0,0,1,1.525.912,3.85,3.85,0,0,1,.95,1.413,5.026,5.026,0,0,1,.326,1.85,4.5,4.5,0,0,1-.625,2.275,5.083,5.083,0,0,1-.713.925,4.124,4.124,0,0,1-.888.7v-.1a4.085,4.085,0,0,1,1.4.575,3.9,3.9,0,0,1,1.013.975,4.072,4.072,0,0,1,.612,1.288,5.673,5.673,0,0,1,.2,1.537,4.719,4.719,0,0,1-.4,1.963,4.408,4.408,0,0,1-1.125,1.524,5.131,5.131,0,0,1-1.737.989,6.908,6.908,0,0,1-2.263.349H88.96a.651.651,0,0,1-.137-.013.176.176,0,0,1-.1-.049.3.3,0,0,1-.063-.113.566.566,0,0,1-.025-.174.293.293,0,0,1,.325-.351h.375a1.672,1.672,0,0,0,1.287-.425,2.184,2.184,0,0,0,.388-1.474V16.35a2.185,2.185,0,0,0-.388-1.475,1.672,1.672,0,0,0-1.287-.425H88.96a.353.353,0,0,1-.237-.075A.347.347,0,0,1,88.635,14.1Zm11.25,4.4v-.025a7.488,7.488,0,0,0-.125-1.45,2.964,2.964,0,0,0-.425-1.075,2.266,2.266,0,0,0-.838-.738,5.186,5.186,0,0,0-1.362-.462q-.275-.049-.55-.088c-.183-.024-.371-.046-.562-.062a4.42,4.42,0,0,0-.575-.013q-.288.014-.576.038c-.191.017-.379.037-.562.063a4.126,4.126,0,0,0-.55.112v7.075h3.375a3.541,3.541,0,0,0,1.025-.15,2.1,2.1,0,0,0,.888-.537,2.693,2.693,0,0,0,.612-1.038A5.116,5.116,0,0,0,99.885,18.5Zm-2.3,11.75a3.905,3.905,0,0,0,1.25-.2,2.65,2.65,0,0,0,1.05-.649,3.3,3.3,0,0,0,.726-1.176,5.141,5.141,0,0,0,.274-1.8V26.4a4.754,4.754,0,0,0-.274-1.739,2.842,2.842,0,0,0-.726-1.087,2.455,2.455,0,0,0-1.024-.549,4.6,4.6,0,0,0-1.176-.151H93.76V29a1.428,1.428,0,0,0,.275.888,1,1,0,0,0,.85.362h2.7Z"/>
    <path class="b" d="M110.257,29a1.931,1.931,0,0,0,.188.875q.188.375.937.375h4a1.845,1.845,0,0,0,.825-.162,1.577,1.577,0,0,0,.537-.426,2.64,2.64,0,0,0,.351-.562,3.468,3.468,0,0,0,.212-.6.563.563,0,0,1,.038-.125.565.565,0,0,0,.037-.125c.017-.05.033-.1.05-.138a.186.186,0,0,1,.062-.086.3.3,0,0,1,.1-.039.815.815,0,0,1,.138-.012.615.615,0,0,1,.125.012.2.2,0,0,1,.087.05.18.18,0,0,1,.049.088.489.489,0,0,1,.013.125c0,.033-.009.125-.024.276s-.034.329-.051.537-.033.437-.05.687-.033.48-.05.688-.033.387-.049.537-.026.242-.026.275h-12.3a.353.353,0,0,1-.237-.075.474.474,0,0,1,0-.55.353.353,0,0,1,.237-.075h.375a1.672,1.672,0,0,0,1.287-.425,2.184,2.184,0,0,0,.388-1.474V16.35a2.185,2.185,0,0,0-.388-1.475,1.672,1.672,0,0,0-1.287-.425h-.375a.353.353,0,0,1-.237-.075.474.474,0,0,1,0-.55.353.353,0,0,1,.237-.075h7.05v.65a4.015,4.015,0,0,0-.4.05q-.326.051-.7.1c-.25.033-.48.066-.688.1s-.329.05-.362.05a1.351,1.351,0,0,0-.1.125Z"/>
    <path class="b" d="M131.854,13.75c.033.25.071.529.112.837s.079.613.113.913.067.567.1.8.059.4.075.5a.834.834,0,0,1-.012.138.194.194,0,0,1-.05.1.3.3,0,0,1-.1.063.54.54,0,0,1-.187.025.452.452,0,0,1-.162-.025.273.273,0,0,1-.1-.063.188.188,0,0,1-.051-.1,1.026,1.026,0,0,0-.037-.138.949.949,0,0,0-.037-.188.885.885,0,0,1-.038-.187,5.653,5.653,0,0,0-.175-.763,1.162,1.162,0,0,0-.825-.812,2.845,2.845,0,0,0-.825-.1H124.2v6.875h5.725v1H124.2V29a2.094,2.094,0,0,0,.063.537.97.97,0,0,0,.187.388.828.828,0,0,0,.337.237,1.414,1.414,0,0,0,.538.088h4.9a2.888,2.888,0,0,0,.825-.1,1.238,1.238,0,0,0,.525-.3,1.253,1.253,0,0,0,.3-.512,5.5,5.5,0,0,0,.175-.763c.017-.083.029-.145.037-.187s.022-.105.038-.188c.033-.1.063-.178.087-.237s.113-.088.263-.088a.521.521,0,0,1,.187.026.285.285,0,0,1,.1.062.2.2,0,0,1,.05.1.735.735,0,0,1,.012.137c-.017.1-.042.267-.075.5s-.067.5-.1.8-.071.605-.113.912-.079.588-.112.838h-12.75a.4.4,0,0,1-.237-.062c-.059-.041-.088-.138-.088-.287a.293.293,0,0,1,.325-.351h.375a1.674,1.674,0,0,0,1.287-.425,2.184,2.184,0,0,0,.388-1.474V16.35a2.185,2.185,0,0,0-.388-1.475,1.674,1.674,0,0,0-1.287-.425h-.375a.293.293,0,0,1-.325-.35c0-.15.029-.245.088-.287a.4.4,0,0,1,.237-.063Z"/>
  </g>
</svg>
