<svg xmlns="http://www.w3.org/2000/svg" viewBox="0 0 145 45">
  <defs>
    <style>
      .a {
        fill: none;
        stroke: #000;
        stroke-miterlimit: 10;
        stroke-width: 3px;
      }
    </style>
  </defs>
  <title>Buttons_web</title>
  <path class="a" d="M122.5,2.5a20,20,0,0,1,0,40H22.5a20,20,0,0,1,0-40Z"/>
  <g>
    <path d="M16.7,13.75h4.774V15h.25V13.75h5.826l-5.576,17.5h-1l-5.924-17.5H16.7Z"/>
    <path d="M39.1,31.25H32.977V30h-.25v1.25H26.6l5.75-17.5h1Zm-9.4-7.5h6.25V27H29.7Z"/>
    <path d="M53.425,26h-1.25v.25h1.25v5h-5.3V30H47.8v1.25H40.925V13.75h12.5V26ZM47.8,20.25V20H46.55v.25Z"/>
    <path d="M56.627,15.25h1.25V15h-1.25V13.75h12.5V15h-1.25v.25h1.25v14.5h-1.25V30h1.25v1.25h-12.5V30h1.25v-.25h-1.25Z"/>
    <path d="M83.462,31.25H77.337V30h-.25v1.25H70.962l5.75-17.5h1Zm-9.4-7.5h6.25V27h-6.25Z"/>
    <path d="M85.284,13.75h12.5v17.5h-12.5V13.75Zm6.375,4.125h0V17.5h-.25v1.25h.25v-.875Zm0,9.625V26.25h-.25V27.5Z"/>
    <path d="M113.381,29v.75h-1.25V30h1.25v1.25h-12.5V13.75h12.5V29Z"/>
    <path d="M128.7,13.75V17.5h-1.25v.25h1.25v9.5h-1.25v.25h1.25v3.75H116.2V13.75Z"/>
  </g>
</svg>
