<svg xmlns="http://www.w3.org/2000/svg" viewBox="0 0 105 25">
  <defs>
    <style>
      .a {
        fill: #cfe5f2;
      }

      .b {
        fill: none;
        stroke: #cfe5f2;
        stroke-miterlimit: 10;
        stroke-width: 1.5px;
      }
    </style>
  </defs>
  <title>Buttons_web</title>
  <g>
    <path class="a" d="M31.883,5.3a7.042,7.042,0,0,1,1.921.25,4.635,4.635,0,0,1,1.54.75,3.394,3.394,0,0,1,1.019,1.25,4,4,0,0,1,.361,1.75H35.1a2.959,2.959,0,0,0-.2-1.139,2.042,2.042,0,0,0-.53-.77,2.166,2.166,0,0,0-.76-.431,2.962,2.962,0,0,0-.91-.139H31.1a3.961,3.961,0,0,0-.89.1,2.009,2.009,0,0,0-.76.351,1.791,1.791,0,0,0-.52.62,1.981,1.981,0,0,0-.19.909v.6a1.19,1.19,0,0,0,.2.679,1.7,1.7,0,0,0,.58.52,4.737,4.737,0,0,0,.9.391q.519.169,1.14.33l1.34.34a14.065,14.065,0,0,1,2.05.649,5.447,5.447,0,0,1,1.351.78,2.617,2.617,0,0,1,.759,1,3.282,3.282,0,0,1,.241,1.29,4.676,4.676,0,0,1-.381,1.981,3.474,3.474,0,0,1-1.07,1.34,4.541,4.541,0,0,1-1.67.759A9.163,9.163,0,0,1,32,19.7a7.149,7.149,0,0,1-2.09-.29,4.343,4.343,0,0,1-1.62-.88,4.045,4.045,0,0,1-1.05-1.5,5.508,5.508,0,0,1-.38-2.13h1.62a3.83,3.83,0,0,0,.241,1.4,3.391,3.391,0,0,0,.609,1.04,2.421,2.421,0,0,0,.85.63,2.317,2.317,0,0,0,.94.21H33a3.224,3.224,0,0,0,.88-.13,3,3,0,0,0,.85-.389,1.936,1.936,0,0,0,.63-.7A2.18,2.18,0,0,0,35.6,15.9v-.6a1.253,1.253,0,0,0-.22-.76,1.745,1.745,0,0,0-.63-.509,5.89,5.89,0,0,0-.96-.38q-.549-.171-1.19-.311c-.08-.026-.187-.059-.32-.1s-.267-.074-.4-.1-.253-.05-.36-.069-.187-.037-.24-.051a11.9,11.9,0,0,1-1.91-.63,4.841,4.841,0,0,1-1.3-.81,2.76,2.76,0,0,1-.74-1.04,3.5,3.5,0,0,1-.23-1.3,3.9,3.9,0,0,1,.36-1.72,3.411,3.411,0,0,1,1-1.231,4.517,4.517,0,0,1,1.511-.74A6.912,6.912,0,0,1,31.883,5.3Z"/>
    <path class="a" d="M51.275,19.5h-1.74L45.2,7.72h-.4L40.475,19.5h-1.72L44,5.5h2.02Zm-9.74-4.88h6.98L48.6,16.16H41.455Z"/>
    <path class="a" d="M62.768,17.339h.4V5.5h1.639v14h-2.62L55.509,7.94h-.4V19.5H53.489V5.5h2.2Z"/>
    <path class="a" d="M72.616,5.3a7.042,7.042,0,0,1,1.921.25,4.625,4.625,0,0,1,1.54.75,3.407,3.407,0,0,1,1.02,1.25,4,4,0,0,1,.36,1.75h-1.62a2.978,2.978,0,0,0-.2-1.139,2.044,2.044,0,0,0-.531-.77,2.153,2.153,0,0,0-.759-.431,2.968,2.968,0,0,0-.911-.139h-1.6a3.963,3.963,0,0,0-.891.1,2.009,2.009,0,0,0-.76.351,1.8,1.8,0,0,0-.519.62,1.968,1.968,0,0,0-.191.909v.6a1.191,1.191,0,0,0,.2.679,1.691,1.691,0,0,0,.58.52,4.726,4.726,0,0,0,.9.391q.52.169,1.141.33l1.34.34a14.048,14.048,0,0,1,2.049.649,5.447,5.447,0,0,1,1.351.78,2.61,2.61,0,0,1,.76,1,3.3,3.3,0,0,1,.24,1.29,4.676,4.676,0,0,1-.381,1.981,3.471,3.471,0,0,1-1.069,1.34,4.548,4.548,0,0,1-1.67.759,9.171,9.171,0,0,1-2.181.241,7.149,7.149,0,0,1-2.09-.29,4.359,4.359,0,0,1-1.62-.88,4.045,4.045,0,0,1-1.05-1.5A5.527,5.527,0,0,1,67.6,14.9h1.62a3.851,3.851,0,0,0,.24,1.4,3.391,3.391,0,0,0,.609,1.04,2.425,2.425,0,0,0,.851.63,2.313,2.313,0,0,0,.939.21h1.88a3.224,3.224,0,0,0,.88-.13,3,3,0,0,0,.851-.389,1.954,1.954,0,0,0,.63-.7,2.18,2.18,0,0,0,.24-1.059v-.6a1.247,1.247,0,0,0-.221-.76,1.728,1.728,0,0,0-.63-.509,5.854,5.854,0,0,0-.96-.38q-.549-.171-1.189-.311c-.08-.026-.188-.059-.321-.1s-.266-.074-.4-.1-.253-.05-.359-.069-.188-.037-.241-.051a11.933,11.933,0,0,1-1.91-.63,4.819,4.819,0,0,1-1.3-.81,2.774,2.774,0,0,1-.741-1.04,3.5,3.5,0,0,1-.229-1.3A3.9,3.9,0,0,1,68.2,7.52a3.411,3.411,0,0,1,1-1.231,4.527,4.527,0,0,1,1.511-.74A6.918,6.918,0,0,1,72.616,5.3Z"/>
  </g>
  <path class="b" d="M12.5,22.5a10,10,0,0,1,0-20h80a10,10,0,0,1,0,20Z"/>
</svg>
