<svg xmlns="http://www.w3.org/2000/svg" viewBox="0 0 105 25">
  <defs>
    <style>
      .a {
        fill: none;
        stroke: #000;
        stroke-miterlimit: 10;
        stroke-width: 1.5px;
      }
    </style>
  </defs>
  <title>Buttons_web</title>
  <g>
    <path d="M16.9,5.5a5.243,5.243,0,0,1,1.759.27,3.536,3.536,0,0,1,1.29.78,3.242,3.242,0,0,1,.8,1.27,5.245,5.245,0,0,1,.27,1.76,4.145,4.145,0,0,1-1.06,3.06A4.143,4.143,0,0,1,16.9,13.7H13.083v5.8H11.464V5.5ZM13.083,7.22v4.96h3.761a3.327,3.327,0,0,0,.93-.13,2.476,2.476,0,0,0,.79-.38,1.919,1.919,0,0,0,.549-.63,1.736,1.736,0,0,0,.21-.86V9a1.618,1.618,0,0,0-.229-.87,2.1,2.1,0,0,0-.59-.62,2.572,2.572,0,0,0-.8-.37,3.257,3.257,0,0,0-.859-.12H13.083Z"/>
    <path d="M33.9,19.5H32.159L27.82,7.72h-.4L23.1,19.5H21.379l5.24-14H28.64Zm-9.741-4.88H31.14l.08,1.54H24.079Z"/>
    <path d="M43.591,5.5V7.02h-4.18V19.5H37.772V7.02H33.491V5.5Z"/>
    <path d="M55.441,5.5V7.02h-4.18V19.5h-1.64V7.02h-4.28V5.5Z"/>
    <path d="M66.475,5.5V7.02H59.254v4.52h6.421v1.52H59.254v4.921h7.221V19.5H57.614V5.5Z"/>
    <path d="M78.78,15.281V19.5H77.139V15.281a1.9,1.9,0,0,0-.14-.75,1.418,1.418,0,0,0-.429-.561,2.043,2.043,0,0,0-.71-.35,3.6,3.6,0,0,0-.981-.12h-4.32v6H68.94V5.5h6.179a5.216,5.216,0,0,1,1.71.26,3.269,3.269,0,0,1,1.26.77,3.365,3.365,0,0,1,.78,1.25,5.013,5.013,0,0,1,.27,1.72,4.724,4.724,0,0,1-.5,2.281,3.046,3.046,0,0,1-1.5,1.359l.06-.38v.5a2.635,2.635,0,0,1,.8.351,1.937,1.937,0,0,1,.54.609A2.05,2.05,0,0,1,78.78,15.281Zm-3.681-3.3a3.4,3.4,0,0,0,.8-.1,2.392,2.392,0,0,0,.759-.32,1.8,1.8,0,0,0,.56-.579,1.709,1.709,0,0,0,.221-.9V8.92a1.559,1.559,0,0,0-.231-.86,1.9,1.9,0,0,0-.59-.59,2.772,2.772,0,0,0-.759-.34,2.9,2.9,0,0,0-.761-.11h-4.54v4.961H75.1Z"/>
    <path d="M91.3,17.34h.4V5.5h1.64v14h-2.62L84.037,7.94h-.4V19.5H82.018V5.5h2.2Z"/>
  </g>
  <path class="a" d="M12.5,22.5a10,10,0,0,1,0-20h80a10,10,0,0,1,0,20Z"/>
</svg>
