<svg xmlns="http://www.w3.org/2000/svg" viewBox="0 0 105 25">
  <defs>
    <style>
      .a {
        fill: none;
        stroke: #000;
        stroke-miterlimit: 10;
        stroke-width: 1.5px;
      }
    </style>
  </defs>
  <title>Buttons_web</title>
  <g>
    <path d="M29.426,17.92h.4L33.767,5.5h2.68v14H34.826V8.56h-.4L30.867,19.5h-2.48L24.826,8.56h-.4V19.5H22.807V5.5h2.68Z"/>
    <path d="M39.773,9.4a6.263,6.263,0,0,1,1.349-2.25,5.712,5.712,0,0,1,2.061-1.38,7.482,7.482,0,0,1,5.22,0,5.7,5.7,0,0,1,2.059,1.38A6.28,6.28,0,0,1,51.813,9.4a9.176,9.176,0,0,1,.479,3.1,9.172,9.172,0,0,1-.479,3.1,6.28,6.28,0,0,1-1.351,2.25A5.719,5.719,0,0,1,48.4,19.231a7.5,7.5,0,0,1-5.22,0,5.727,5.727,0,0,1-2.061-1.381,6.263,6.263,0,0,1-1.349-2.25,9.146,9.146,0,0,1-.481-3.1A9.15,9.15,0,0,1,39.773,9.4Zm5.019-2.58a3.17,3.17,0,0,0-1.4.33,3.774,3.774,0,0,0-1.21.94,4.74,4.74,0,0,0-.851,1.47,5.544,5.544,0,0,0-.319,1.94v2a5.562,5.562,0,0,0,.319,1.93,4.7,4.7,0,0,0,.851,1.48,3.76,3.76,0,0,0,1.21.94,3.156,3.156,0,0,0,1.4.33h2a3.158,3.158,0,0,0,1.4-.33,3.793,3.793,0,0,0,1.21-.94,4.7,4.7,0,0,0,.849-1.48,5.538,5.538,0,0,0,.321-1.93v-2a5.52,5.52,0,0,0-.321-1.94A4.86,4.86,0,0,0,49.4,8.08a3.631,3.631,0,0,0-1.21-.94,3.258,3.258,0,0,0-1.4-.32Z"/>
    <path d="M64.418,17.34h.4V5.5h1.639v14h-2.62L57.158,7.94h-.4V19.5H55.139V5.5h2.2Z"/>
    <path d="M69.774,9.4a6.263,6.263,0,0,1,1.349-2.25,5.712,5.712,0,0,1,2.061-1.38,7.482,7.482,0,0,1,5.22,0,5.7,5.7,0,0,1,2.059,1.38A6.28,6.28,0,0,1,81.814,9.4a9.176,9.176,0,0,1,.479,3.1,9.172,9.172,0,0,1-.479,3.1,6.28,6.28,0,0,1-1.351,2.25A5.719,5.719,0,0,1,78.4,19.231a7.5,7.5,0,0,1-5.22,0,5.727,5.727,0,0,1-2.061-1.381,6.263,6.263,0,0,1-1.349-2.25,9.146,9.146,0,0,1-.481-3.1A9.15,9.15,0,0,1,69.774,9.4Zm5.019-2.58a3.17,3.17,0,0,0-1.4.33,3.774,3.774,0,0,0-1.21.94,4.74,4.74,0,0,0-.851,1.47,5.544,5.544,0,0,0-.319,1.94v2a5.562,5.562,0,0,0,.319,1.93,4.7,4.7,0,0,0,.851,1.48,3.76,3.76,0,0,0,1.21.94,3.156,3.156,0,0,0,1.4.33h2a3.158,3.158,0,0,0,1.4-.33,3.793,3.793,0,0,0,1.21-.94,4.7,4.7,0,0,0,.849-1.48,5.538,5.538,0,0,0,.321-1.93v-2a5.52,5.52,0,0,0-.321-1.94A4.86,4.86,0,0,0,79.4,8.08a3.631,3.631,0,0,0-1.21-.94,3.258,3.258,0,0,0-1.4-.32Z"/>
  </g>
  <path class="a" d="M12.5,22.5a10,10,0,0,1,0-20h80a10,10,0,0,1,0,20Z"/>
</svg>
