<svg xmlns="http://www.w3.org/2000/svg" viewBox="0 0 145 45">
  <defs>
    <style>
      .a {
        fill: none;
        stroke: #cfe5f2;
        stroke-miterlimit: 10;
        stroke-width: 3px;
      }

      .b {
        fill: #cfe5f2;
      }
    </style>
  </defs>
  <title>Buttons_web</title>
  <path class="a" d="M122.5,2.5a20,20,0,0,1,0,40H22.5a20,20,0,0,1,0-40Z"/>
  <g>
    <path class="b" d="M14.46,13.75h1.974q.076.174.476,1.3t.975,2.725q.574,1.6,1.237,3.437l1.238,3.439q.575,1.6.975,2.724c.266.75.425,1.192.474,1.325h.5q.126-.375.526-1.475t.937-2.574q.539-1.476,1.138-3.151t1.162-3.213q.563-1.536,1-2.762t.638-1.775h2.349l-6.375,17.5h-3.25l-6.349-17.5h.375Z"/>
    <path class="b" d="M45.74,31.25H43.39l-5.325-14.5h-.5L32.24,31.25H29.89l6.55-17.5h2.725Zm-12.15-6.2h8.525l.2,2.075h-8.95Z"/>
    <path class="b" d="M60.887,25.975V31.25h-2.2V25.975a2.3,2.3,0,0,0-.187-.962,1.865,1.865,0,0,0-.55-.7,2.368,2.368,0,0,0-.888-.425,4.727,4.727,0,0,0-1.2-.138h-5.2v7.5h-2.2V13.75h7.825a6.529,6.529,0,0,1,2.138.325A4.076,4.076,0,0,1,60,15.037a4.213,4.213,0,0,1,.975,1.563,6.266,6.266,0,0,1,.337,2.15,5.847,5.847,0,0,1-.625,2.825,3.814,3.814,0,0,1-1.875,1.7l.1-.426v.6a3.315,3.315,0,0,1,1,.438,2.44,2.44,0,0,1,.675.763A2.553,2.553,0,0,1,60.887,25.975Zm-4.65-4.3a4.75,4.75,0,0,0,.962-.1,2.5,2.5,0,0,0,.888-.363,2.317,2.317,0,0,0,.675-.687,1.9,1.9,0,0,0,.275-1.05v-1.45A1.848,1.848,0,0,0,58.762,17a2.2,2.2,0,0,0-.7-.687,3.009,3.009,0,0,0-.912-.375,4.013,4.013,0,0,0-.912-.113H50.662v5.85h5.575Z"/>
    <path class="b" d="M64.89,13.925V13.75h2.2v17.5h-2.2V13.925Z"/>
    <path class="b" d="M85.675,31.25h-2.35L78,16.75h-.5l-5.325,14.5h-2.35l6.55-17.5H79.1Zm-12.151-6.2H82.05l.2,2.075H73.3Z"/>
    <path class="b" d="M88.4,13.875V13.75h7.55a5.985,5.985,0,0,1,1.938.287,3.52,3.52,0,0,1,2.275,2.276,5.978,5.978,0,0,1,.287,1.937,3.8,3.8,0,0,1-.175,1.138,4.94,4.94,0,0,1-1.162,1.962,3.591,3.591,0,0,1-.838.65v.2a4.27,4.27,0,0,1,1.326.563,3.823,3.823,0,0,1,1,.925,4.312,4.312,0,0,1,.625,1.213,4.659,4.659,0,0,1,.224,1.474,6,6,0,0,1-.337,2.088A4.125,4.125,0,0,1,100.134,30a4.049,4.049,0,0,1-1.55.938,6.42,6.42,0,0,1-2.088.312H88.4V13.875ZM98.172,19.1V17.65a1.7,1.7,0,0,0-.188-.837,1.613,1.613,0,0,0-.525-.563,2.292,2.292,0,0,0-.787-.325,4.543,4.543,0,0,0-.976-.1H90.6V21.3h5.1a3.2,3.2,0,0,0,.888-.125,2.393,2.393,0,0,0,.787-.388,2.015,2.015,0,0,0,.575-.687A2.094,2.094,0,0,0,98.172,19.1ZM96.3,29.175a4.7,4.7,0,0,0,1.011-.112,2.889,2.889,0,0,0,.926-.375,2.281,2.281,0,0,0,.675-.651,1.586,1.586,0,0,0,.263-.912V25.5a1.75,1.75,0,0,0-.25-.963,2.2,2.2,0,0,0-.651-.649,2.914,2.914,0,0,0-.912-.388,4.487,4.487,0,0,0-1.062-.125H90.6v5.8h5.7Z"/>
    <path class="b" d="M106.869,29.175h7.175V31.25h-9.375V13.75h2.2V29.175Z"/>
    <path class="b" d="M127.791,13.75v2.075h-8.949v5.4h7.949v2.051h-7.949v5.9h8.949V31.25h-11.15V13.75Z"/>
  </g>
</svg>
