<svg xmlns="http://www.w3.org/2000/svg" viewBox="0 0 145 45">
  <defs>
    <style>
      .a {
        fill: none;
        stroke: #cfe5f2;
        stroke-miterlimit: 10;
        stroke-width: 3px;
      }

      .b {
        fill: #cfe5f2;
      }
    </style>
  </defs>
  <title>Buttons_web</title>
  <path class="a" d="M122.5,2.5a20,20,0,0,1,0,40H22.5a20,20,0,0,1,0-40Z"/>
  <g>
    <path class="b" d="M11.722,13.75h7.55V15h-2.75a.926.926,0,0,0-.313.05.652.652,0,0,0-.237.15.645.645,0,0,0-.149.238.892.892,0,0,0-.051.312l4.4,14.75H20.1l4.25-14.75a.911.911,0,0,0-.024-.2.788.788,0,0,0-.076-.188.712.712,0,0,0-.45-.337A.849.849,0,0,0,23.6,15H20.772V13.75h4.8v.5l-4.9,17h-2.65l-4.75-16a.691.691,0,0,0-.75-.75h-.8v-.75Z"/>
    <path class="b" d="M37.852,29.75a1.376,1.376,0,0,0,.237.537.6.6,0,0,0,.513.213h1.5v.75H33.277V30.5H34.8a.84.84,0,0,0,.587-.213.516.516,0,0,0,.163-.537l-3.4-13.425h.025l-3.5,13.425a.455.455,0,0,0,.138.575,1.075,1.075,0,0,0,.612.175h1.5v.75H25.6V30.5h1.475a.567.567,0,0,0,.5-.213,1.876,1.876,0,0,0,.25-.537L31.9,14.875a.239.239,0,0,0-.075-.275.464.464,0,0,0-.3-.1H29.552v-.75h4.3Zm-8.175-5h6.5v1h-6.5Z"/>
    <path class="b" d="M52.325,25.776q.2.324.524.949t.7,1.312q.375.688.738,1.364c.241.449.446.816.612,1.1v.75h-.475q-.474-.575-1.387-1.65t-1.888-2.212q-.975-1.139-1.837-2.163T48.049,23.75H46.1l-.375.375V29.75a.922.922,0,0,0,.05.313.643.643,0,0,0,.15.237.635.635,0,0,0,.238.15.892.892,0,0,0,.312.05H49.3v.75H41.924V30.5h.8a.692.692,0,0,0,.75-.75V15.25a.692.692,0,0,0-.75-.75h-.8v-.75h7.1a9.184,9.184,0,0,1,2.45.287,3.956,3.956,0,0,1,1.675.9,3.693,3.693,0,0,1,.963,1.549,7.211,7.211,0,0,1,.312,2.263,5.03,5.03,0,0,1-1.262,3.813,5.885,5.885,0,0,1-4.113,1.187l.475-.45v.15a6.133,6.133,0,0,1,1,.375,3.333,3.333,0,0,1,.7.462,3.386,3.386,0,0,1,.55.625Q52.025,25.275,52.325,25.776ZM49.024,23a3.774,3.774,0,0,0,1.413-.237,2.265,2.265,0,0,0,.975-.75,3.468,3.468,0,0,0,.575-1.313,8.55,8.55,0,0,0,.187-1.925v-.05A7.136,7.136,0,0,0,52,17.037a2.77,2.77,0,0,0-.562-1.162,2.3,2.3,0,0,0-.987-.663A4.3,4.3,0,0,0,49.024,15H46.1l-.375.375V22.75h-1V23h4.3Z"/>
    <path class="b" d="M62.751,15.75A.692.692,0,0,0,62,15H57.876V13.75h12V15H65.751a.693.693,0,0,0-.75.75v14a.693.693,0,0,0,.75.75h4.125v.75h-12V30.5H62a.692.692,0,0,0,.75-.75Z"/>
    <path class="b" d="M84.211,29.75a1.362,1.362,0,0,0,.238.537.6.6,0,0,0,.512.213h1.5v.75H79.636V30.5h1.526a.839.839,0,0,0,.586-.213.516.516,0,0,0,.164-.537l-3.4-13.425h.026l-3.5,13.425c-.084.267-.039.459.137.575a1.076,1.076,0,0,0,.613.175h1.5v.75H71.961V30.5h1.475a.567.567,0,0,0,.5-.213,1.824,1.824,0,0,0,.25-.537l4.075-14.875a.239.239,0,0,0-.075-.275.464.464,0,0,0-.3-.1H75.912v-.75h4.3Zm-8.174-5h6.5v1h-6.5Z"/>
    <path class="b" d="M88.284,14.1v-.35h6.349a9.484,9.484,0,0,1,2.413.263,3.809,3.809,0,0,1,1.6.812,3.048,3.048,0,0,1,.875,1.4,6.907,6.907,0,0,1,.263,2.025,6.264,6.264,0,0,1-.151,1.325,5.092,5.092,0,0,1-.462,1.3,3.172,3.172,0,0,1-.775.987,1.6,1.6,0,0,1-1.063.388v.25a3.285,3.285,0,0,1,1.414.3,3.38,3.38,0,0,1,1.086.8,3.6,3.6,0,0,1,.7,1.187,4.27,4.27,0,0,1,.25,1.463,7.232,7.232,0,0,1-.313,2.25,3.684,3.684,0,0,1-.963,1.563,3.941,3.941,0,0,1-1.662.9,8.929,8.929,0,0,1-2.412.287h-7.15V30.5h.8a.692.692,0,0,0,.75-.75V15.25a.692.692,0,0,0-.75-.75h-.8v-.4Zm7.15,16.4a4.28,4.28,0,0,0,1.55-.237,1.929,1.929,0,0,0,.937-.763,3.539,3.539,0,0,0,.475-1.325,11.516,11.516,0,0,0,.138-1.925v-.025a6.051,6.051,0,0,0-.175-1.55,2.933,2.933,0,0,0-.526-1.087,2.019,2.019,0,0,0-.875-.638,3.433,3.433,0,0,0-1.224-.2H92.458l-.375.375V30.25h-1v.25h4.351Zm2.1-12.25v-.025a6.728,6.728,0,0,0-.138-1.462,2.243,2.243,0,0,0-.475-1,2,2,0,0,0-.9-.575A4.63,4.63,0,0,0,94.583,15H92.458l-.375.375v6.25l.375.375h2.726a2.193,2.193,0,0,0,1.012-.224,1.972,1.972,0,0,0,.738-.676,3.326,3.326,0,0,0,.449-1.162A8.224,8.224,0,0,0,97.534,18.25Z"/>
    <path class="b" d="M107.681,30.25h-1v.25h8.2a.692.692,0,0,0,.75-.75v-5.5h.75v7h-12.5V30.5h.8a.692.692,0,0,0,.75-.75V15.25a.692.692,0,0,0-.75-.75h-.8v-.75h7.55V15h-3a.692.692,0,0,0-.75.75Z"/>
    <path class="b" d="M131.7,13.75V17.5h-.75V15.75a.693.693,0,0,0-.75-.75h-6.826l-.375.375V21.5l.375.375h6.076a.9.9,0,0,0,.224-.025,1.092,1.092,0,0,0,.188-.063.456.456,0,0,0,.15-.1.474.474,0,0,0,.1-.151,1.108,1.108,0,0,0,.062-.187.915.915,0,0,0,.026-.225v-2.25h.75v6.75h-.75v-2.25a.693.693,0,0,0-.75-.75h-6.076L123,23v7.25h-1v.25h8.2a.9.9,0,0,0,.312-.05.623.623,0,0,0,.237-.15.646.646,0,0,0,.151-.237.922.922,0,0,0,.05-.313V27.5h.75v3.75H119.2V30.5h.8a.692.692,0,0,0,.75-.75V15.25a.692.692,0,0,0-.75-.75h-.8v-.75Z"/>
  </g>
</svg>
