<svg xmlns="http://www.w3.org/2000/svg" viewBox="0 0 105 25">
  <defs>
    <style>
      .a {
        fill: #cfe5f2;
      }

      .b {
        fill: none;
        stroke: #cfe5f2;
        stroke-miterlimit: 10;
        stroke-width: 1.5px;
      }
    </style>
  </defs>
  <title>Buttons_web</title>
  <g>
    <path class="a" d="M31.8,5.3a7.042,7.042,0,0,1,1.921.25,4.644,4.644,0,0,1,1.54.75,3.394,3.394,0,0,1,1.019,1.25,4,4,0,0,1,.36,1.75h-1.62a2.959,2.959,0,0,0-.2-1.139,2.042,2.042,0,0,0-.53-.77,2.166,2.166,0,0,0-.76-.431,2.962,2.962,0,0,0-.91-.139h-1.6a3.961,3.961,0,0,0-.89.1,2.009,2.009,0,0,0-.76.351,1.791,1.791,0,0,0-.52.62,1.969,1.969,0,0,0-.19.909v.6a1.19,1.19,0,0,0,.2.679,1.7,1.7,0,0,0,.58.52,4.737,4.737,0,0,0,.9.391q.519.169,1.14.33l1.34.34a14.065,14.065,0,0,1,2.05.649,5.447,5.447,0,0,1,1.351.78,2.617,2.617,0,0,1,.759,1,3.3,3.3,0,0,1,.241,1.29,4.676,4.676,0,0,1-.381,1.981,3.474,3.474,0,0,1-1.07,1.34,4.541,4.541,0,0,1-1.67.759,9.163,9.163,0,0,1-2.18.241,7.149,7.149,0,0,1-2.09-.29,4.343,4.343,0,0,1-1.62-.88,4.045,4.045,0,0,1-1.05-1.5,5.508,5.508,0,0,1-.38-2.13H28.4a3.851,3.851,0,0,0,.24,1.4,3.413,3.413,0,0,0,.61,1.04,2.421,2.421,0,0,0,.85.63,2.317,2.317,0,0,0,.94.21h1.88a3.224,3.224,0,0,0,.88-.13,3.01,3.01,0,0,0,.85-.389,1.936,1.936,0,0,0,.63-.7,2.18,2.18,0,0,0,.24-1.059v-.6a1.253,1.253,0,0,0-.22-.76,1.745,1.745,0,0,0-.63-.509,5.89,5.89,0,0,0-.96-.38q-.549-.171-1.19-.311c-.08-.026-.187-.059-.32-.1s-.267-.074-.4-.1-.253-.05-.36-.069-.187-.037-.24-.051a11.9,11.9,0,0,1-1.91-.63,4.841,4.841,0,0,1-1.3-.81,2.76,2.76,0,0,1-.74-1.04,3.5,3.5,0,0,1-.23-1.3,3.885,3.885,0,0,1,.36-1.72,3.411,3.411,0,0,1,1-1.231,4.512,4.512,0,0,1,1.51-.74A6.925,6.925,0,0,1,31.8,5.3Z"/>
    <path class="a" d="M48.761,5.5V7.02H41.54v4.519h6.421v1.52H41.54V17.98h7.221V19.5H39.9V5.5Z"/>
    <path class="a" d="M61.064,15.28V19.5h-1.64V15.28a1.9,1.9,0,0,0-.14-.75,1.411,1.411,0,0,0-.43-.561,2.042,2.042,0,0,0-.71-.35,3.585,3.585,0,0,0-.98-.12h-4.32v6h-1.62V5.5H57.4a5.216,5.216,0,0,1,1.71.26,3.271,3.271,0,0,1,1.26.771,3.362,3.362,0,0,1,.78,1.25,5,5,0,0,1,.27,1.719,4.724,4.724,0,0,1-.5,2.281,3.046,3.046,0,0,1-1.5,1.359l.06-.38v.5a2.635,2.635,0,0,1,.8.351,1.937,1.937,0,0,1,.54.609A2.051,2.051,0,0,1,61.064,15.28Zm-3.68-3.3a3.39,3.39,0,0,0,.8-.1,2.388,2.388,0,0,0,.76-.32,1.8,1.8,0,0,0,.56-.579,1.709,1.709,0,0,0,.22-.9V8.919a1.561,1.561,0,0,0-.23-.859,1.909,1.909,0,0,0-.59-.59,2.8,2.8,0,0,0-.76-.341,2.881,2.881,0,0,0-.76-.109h-4.54v4.96h4.54Z"/>
    <path class="a" d="M64.32,5.619V5.5h1.619v14H64.32V5.619Z"/>
    <path class="a" d="M78.142,5.5V6.98l-.04.04h-7.22v4.819h6.461V13.36H70.882V19.5h-1.62V5.5Z"/>
  </g>
  <path class="b" d="M12.5,22.5a10,10,0,0,1,0-20h80a10,10,0,0,1,0,20Z"/>
</svg>
