<svg xmlns="http://www.w3.org/2000/svg" viewBox="0 0 105 25">
  <defs>
    <style>
      .a {
        fill: none;
        stroke: #000;
        stroke-miterlimit: 10;
        stroke-width: 1.5px;
      }
    </style>
  </defs>
  <title>Buttons_web</title>
  <g>
    <path d="M31.883,5.3a7,7,0,0,1,1.921.25,4.635,4.635,0,0,1,1.54.75,3.386,3.386,0,0,1,1.019,1.25,4,4,0,0,1,.361,1.75H35.1a2.96,2.96,0,0,0-.2-1.14,2.05,2.05,0,0,0-.53-.77,2.149,2.149,0,0,0-.76-.43,2.932,2.932,0,0,0-.91-.14H31.1a3.961,3.961,0,0,0-.89.1,2.007,2.007,0,0,0-.76.35,1.8,1.8,0,0,0-.52.62,1.986,1.986,0,0,0-.19.91v.6a1.191,1.191,0,0,0,.2.68,1.7,1.7,0,0,0,.58.52,4.737,4.737,0,0,0,.9.391q.519.169,1.14.33l1.34.339a14.056,14.056,0,0,1,2.05.65,5.447,5.447,0,0,1,1.351.78,2.617,2.617,0,0,1,.759,1,3.282,3.282,0,0,1,.241,1.29,4.676,4.676,0,0,1-.381,1.981,3.463,3.463,0,0,1-1.07,1.339,4.526,4.526,0,0,1-1.67.76A9.165,9.165,0,0,1,32,19.7a7.115,7.115,0,0,1-2.09-.29,4.328,4.328,0,0,1-1.62-.879,4.045,4.045,0,0,1-1.05-1.5,5.508,5.508,0,0,1-.38-2.13h1.62a3.83,3.83,0,0,0,.241,1.4,3.391,3.391,0,0,0,.609,1.04,2.421,2.421,0,0,0,.85.63,2.317,2.317,0,0,0,.94.21H33a3.224,3.224,0,0,0,.88-.13,2.973,2.973,0,0,0,.85-.39,1.924,1.924,0,0,0,.63-.7A2.18,2.18,0,0,0,35.6,15.9v-.6a1.251,1.251,0,0,0-.22-.76,1.745,1.745,0,0,0-.63-.509,5.89,5.89,0,0,0-.96-.38q-.549-.171-1.19-.311c-.08-.026-.187-.059-.32-.1s-.267-.074-.4-.1-.253-.05-.36-.069-.187-.037-.24-.051a11.9,11.9,0,0,1-1.91-.63,4.841,4.841,0,0,1-1.3-.81,2.76,2.76,0,0,1-.74-1.04,3.5,3.5,0,0,1-.23-1.3,3.906,3.906,0,0,1,.36-1.721,3.4,3.4,0,0,1,1-1.23,4.5,4.5,0,0,1,1.511-.74A6.875,6.875,0,0,1,31.883,5.3Z"/>
    <path d="M51.275,19.5h-1.74L45.2,7.72h-.4L40.475,19.5h-1.72L44,5.5h2.02Zm-9.74-4.88h6.98l.081,1.54H41.455Z"/>
    <path d="M62.768,17.34h.4V5.5h1.639v14h-2.62L55.509,7.94h-.4V19.5H53.489V5.5h2.2Z"/>
    <path d="M72.616,5.3a7,7,0,0,1,1.921.25,4.625,4.625,0,0,1,1.54.75A3.4,3.4,0,0,1,77.1,7.55a4,4,0,0,1,.36,1.75h-1.62a2.979,2.979,0,0,0-.2-1.14,2.052,2.052,0,0,0-.531-.77,2.136,2.136,0,0,0-.759-.43,2.939,2.939,0,0,0-.911-.14h-1.6a3.963,3.963,0,0,0-.891.1,2.007,2.007,0,0,0-.76.35,1.809,1.809,0,0,0-.519.62,1.973,1.973,0,0,0-.191.91v.6a1.192,1.192,0,0,0,.2.68,1.691,1.691,0,0,0,.58.52,4.726,4.726,0,0,0,.9.391q.52.169,1.141.33l1.34.339a14.039,14.039,0,0,1,2.049.65,5.447,5.447,0,0,1,1.351.78,2.61,2.61,0,0,1,.76,1,3.3,3.3,0,0,1,.24,1.29,4.676,4.676,0,0,1-.381,1.981A3.461,3.461,0,0,1,76.587,18.7a4.533,4.533,0,0,1-1.67.76,9.173,9.173,0,0,1-2.181.24,7.115,7.115,0,0,1-2.09-.29,4.343,4.343,0,0,1-1.62-.879,4.045,4.045,0,0,1-1.05-1.5A5.527,5.527,0,0,1,67.6,14.9h1.62a3.851,3.851,0,0,0,.24,1.4,3.391,3.391,0,0,0,.609,1.04,2.425,2.425,0,0,0,.851.63,2.313,2.313,0,0,0,.939.21h1.88a3.224,3.224,0,0,0,.88-.13,2.979,2.979,0,0,0,.851-.39,1.942,1.942,0,0,0,.63-.7,2.18,2.18,0,0,0,.24-1.059v-.6a1.244,1.244,0,0,0-.221-.76,1.728,1.728,0,0,0-.63-.509,5.854,5.854,0,0,0-.96-.38q-.549-.171-1.189-.311c-.08-.026-.188-.059-.321-.1a4.108,4.108,0,0,0-.4-.1c-.133-.026-.253-.05-.359-.069s-.188-.037-.241-.051a11.933,11.933,0,0,1-1.91-.63,4.819,4.819,0,0,1-1.3-.81,2.774,2.774,0,0,1-.741-1.04,3.5,3.5,0,0,1-.229-1.3A3.906,3.906,0,0,1,68.2,7.52a3.4,3.4,0,0,1,1-1.23,4.508,4.508,0,0,1,1.511-.74A6.88,6.88,0,0,1,72.616,5.3Z"/>
  </g>
  <path class="a" d="M12.5,22.5a10,10,0,0,1,0-20h80a10,10,0,0,1,0,20Z"/>
</svg>
