<svg xmlns="http://www.w3.org/2000/svg" viewBox="0 0 105 25">
  <defs>
    <style>
      .a {
        fill: none;
        stroke: #000;
        stroke-miterlimit: 10;
        stroke-width: 1.5px;
      }
    </style>
  </defs>
  <title>Buttons_web</title>
  <g>
    <path d="M31.8,5.3a7,7,0,0,1,1.921.25,4.644,4.644,0,0,1,1.54.75,3.386,3.386,0,0,1,1.019,1.25,4,4,0,0,1,.36,1.75h-1.62a2.96,2.96,0,0,0-.2-1.14,2.05,2.05,0,0,0-.53-.77,2.149,2.149,0,0,0-.76-.43,2.932,2.932,0,0,0-.91-.14h-1.6a3.961,3.961,0,0,0-.89.1,2.007,2.007,0,0,0-.76.35,1.8,1.8,0,0,0-.52.62,1.973,1.973,0,0,0-.19.91v.6a1.191,1.191,0,0,0,.2.68,1.7,1.7,0,0,0,.58.52,4.737,4.737,0,0,0,.9.391q.519.169,1.14.33l1.34.339a14.056,14.056,0,0,1,2.05.65,5.447,5.447,0,0,1,1.351.78,2.617,2.617,0,0,1,.759,1,3.3,3.3,0,0,1,.241,1.29,4.676,4.676,0,0,1-.381,1.981,3.463,3.463,0,0,1-1.07,1.339,4.526,4.526,0,0,1-1.67.76,9.165,9.165,0,0,1-2.18.24,7.115,7.115,0,0,1-2.09-.29,4.328,4.328,0,0,1-1.62-.879,4.045,4.045,0,0,1-1.05-1.5,5.508,5.508,0,0,1-.38-2.13H28.4a3.851,3.851,0,0,0,.24,1.4,3.413,3.413,0,0,0,.61,1.04,2.421,2.421,0,0,0,.85.63,2.317,2.317,0,0,0,.94.21h1.88a3.224,3.224,0,0,0,.88-.13,2.985,2.985,0,0,0,.85-.39,1.924,1.924,0,0,0,.63-.7,2.18,2.18,0,0,0,.24-1.059v-.6a1.251,1.251,0,0,0-.22-.76,1.745,1.745,0,0,0-.63-.509,5.89,5.89,0,0,0-.96-.38q-.549-.171-1.19-.311c-.08-.026-.187-.059-.32-.1s-.267-.074-.4-.1-.253-.05-.36-.069-.187-.037-.24-.051a11.9,11.9,0,0,1-1.91-.63,4.841,4.841,0,0,1-1.3-.81,2.76,2.76,0,0,1-.74-1.04,3.5,3.5,0,0,1-.23-1.3,3.892,3.892,0,0,1,.36-1.721,3.4,3.4,0,0,1,1-1.23,4.493,4.493,0,0,1,1.51-.74A6.887,6.887,0,0,1,31.8,5.3Z"/>
    <path d="M48.761,5.5V7.02H41.54v4.52h6.421v1.52H41.54v4.921h7.221V19.5H39.9V5.5Z"/>
    <path d="M61.064,15.281V19.5h-1.64V15.281a1.9,1.9,0,0,0-.14-.75,1.411,1.411,0,0,0-.43-.561,2.025,2.025,0,0,0-.71-.35,3.585,3.585,0,0,0-.98-.12h-4.32v6h-1.62V5.5H57.4a5.216,5.216,0,0,1,1.71.26,3.269,3.269,0,0,1,1.26.77,3.378,3.378,0,0,1,.78,1.25,5.013,5.013,0,0,1,.27,1.72,4.724,4.724,0,0,1-.5,2.281,3.046,3.046,0,0,1-1.5,1.359l.06-.38v.5a2.635,2.635,0,0,1,.8.351,1.937,1.937,0,0,1,.54.609A2.051,2.051,0,0,1,61.064,15.281Zm-3.68-3.3a3.39,3.39,0,0,0,.8-.1,2.388,2.388,0,0,0,.76-.32,1.8,1.8,0,0,0,.56-.579,1.709,1.709,0,0,0,.22-.9V8.92a1.567,1.567,0,0,0-.23-.86,1.909,1.909,0,0,0-.59-.59,2.765,2.765,0,0,0-.76-.34,2.884,2.884,0,0,0-.76-.11h-4.54v4.961h4.54Z"/>
    <path d="M64.32,5.62V5.5h1.619v14H64.32V5.62Z"/>
    <path d="M78.142,5.5V6.98l-.04.04h-7.22v4.82h6.461v1.521H70.882V19.5h-1.62V5.5Z"/>
  </g>
  <path class="a" d="M12.5,22.5a10,10,0,0,1,0-20h80a10,10,0,0,1,0,20Z"/>
</svg>
