<svg xmlns="http://www.w3.org/2000/svg" viewBox="0 0 145 45">
  <defs>
    <style>
      .a {
        fill: none;
        stroke: #000;
        stroke-miterlimit: 10;
        stroke-width: 3px;
      }
    </style>
  </defs>
  <title>Buttons_web_logo_7</title>
  <path class="a" d="M122.5,2.5a20,20,0,0,1,0,40H22.5a20,20,0,0,1,0-40Z"/>
  <g>
    <path d="M30.6,13.75h1.8c.048.217.162.712.338,1.487s.378,1.684.611,2.725.488,2.15.764,3.326.527,2.283.761,3.324.438,1.951.614,2.726.287,1.27.335,1.487h.327c.048-.25.162-.741.338-1.475s.375-1.6.6-2.587.467-2.054.725-3.188.5-2.217.738-3.25.445-1.958.637-2.775.328-1.416.412-1.8h2.025l-4.074,17.5H34.4l-4.026-17.5H30.6Z"/>
    <path d="M52.2,31.25H50.251L46.827,16.325H46.5L43.077,31.25H41.126l4.125-17.5h2.826Zm-8.576-6.375h5.727l.224,1.75H43.353Z"/>
    <path d="M63.724,26v5.25H61.8V26a4.35,4.35,0,0,0-.088-.912,2.033,2.033,0,0,0-.287-.713,1.335,1.335,0,0,0-.539-.463,2.007,2.007,0,0,0-.861-.162h-3.5v7.5h-1.9V13.75h5.5a4.062,4.062,0,0,1,1.676.325,3.212,3.212,0,0,1,1.225.963,4.36,4.36,0,0,1,.75,1.562,8.316,8.316,0,0,1,.25,2.15,7.1,7.1,0,0,1-.538,2.95,3.317,3.317,0,0,1-1.562,1.675l.1-.425v.525a2.721,2.721,0,0,1,.849.437,2.421,2.421,0,0,1,.588.763A2.873,2.873,0,0,1,63.724,26Zm-3.6-4a2.031,2.031,0,0,0,.75-.138,1.566,1.566,0,0,0,.613-.437,2.152,2.152,0,0,0,.413-.775,3.885,3.885,0,0,0,.15-1.15V18a3.467,3.467,0,0,0-.164-1.125,2.064,2.064,0,0,0-.449-.775,2,2,0,0,0-.625-.45,1.681,1.681,0,0,0-.688-.15h-3.6V22h3.6Z"/>
    <path d="M67.075,14.125V13.75H68.95v17.5H67.075V14.125Z"/>
    <path d="M82.411,31.25H80.46L77.036,16.325H76.71L73.286,31.25H71.335l4.125-17.5h2.826Zm-8.576-6.375h5.727l.224,1.75H73.562Z"/>
    <path d="M84.833,13.875V13.75H90.06a3.831,3.831,0,0,1,1.537.288,2.806,2.806,0,0,1,1.111.862,3.9,3.9,0,0,1,.676,1.413,7.5,7.5,0,0,1,.225,1.937,4.756,4.756,0,0,1-.137,1.138A5.561,5.561,0,0,1,93.1,20.45a4.742,4.742,0,0,1-.551.9,3.264,3.264,0,0,1-.662.65v.2a2.709,2.709,0,0,1,.988.563,3.45,3.45,0,0,1,.737.937,4.9,4.9,0,0,1,.462,1.25,6.524,6.524,0,0,1,.163,1.475,7.8,7.8,0,0,1-.25,2.075,4.217,4.217,0,0,1-.737,1.513,3.128,3.128,0,0,1-1.2.925,4.114,4.114,0,0,1-1.662.312H84.833V13.875ZM91.634,19V17.5a2.631,2.631,0,0,0-.125-.862,2.023,2.023,0,0,0-.338-.625,1.255,1.255,0,0,0-.525-.388,1.764,1.764,0,0,0-.662-.125H86.708v6h3.276a1.168,1.168,0,0,0,.587-.163,1.728,1.728,0,0,0,.526-.475,2.569,2.569,0,0,0,.387-.787A3.594,3.594,0,0,0,91.634,19Zm-1.35,10.5a1.9,1.9,0,0,0,.7-.138,1.865,1.865,0,0,0,.638-.424,2.143,2.143,0,0,0,.461-.7,2.369,2.369,0,0,0,.176-.937V25.55a2.612,2.612,0,0,0-.176-1,2.216,2.216,0,0,0-.449-.712,1.906,1.906,0,0,0-.625-.438,1.825,1.825,0,0,0-.725-.15H86.708V29.5h3.576Z"/>
    <path d="M99.056,29.5h5v1.75H97.181V13.75h1.875V29.5Z"/>
    <path d="M113.853,13.75V15.5h-5.7v5.875h5.074v1.75h-5l-.074.05V29.5h5.7v1.75h-7.574V13.75Z"/>
  </g>
</svg>
