<svg xmlns="http://www.w3.org/2000/svg" viewBox="0 0 145 45">
  <defs>
    <style>
      .a {
        fill: none;
        stroke: #000;
        stroke-miterlimit: 10;
        stroke-width: 3px;
      }
    </style>
  </defs>
  <title>Buttons_web</title>
  <path class="a" d="M122.5,2.5a20,20,0,0,1,0,40H22.5a20,20,0,0,1,0-40Z"/>
  <g>
    <path d="M12.26,13.75h2.95q.075.176.45,1.275t.9,2.663q.525,1.561,1.15,3.35t1.15,3.35q.525,1.563.913,2.662c.258.733.4,1.159.437,1.275h.5q.124-.35.5-1.425t.863-2.512q.487-1.437,1.049-3.075t1.088-3.138q.525-1.5.938-2.688t.587-1.737H29.06l-6.05,17.5h-5.1l-6.025-17.5h.375Z"/>
    <path d="M45.965,31.25H42.616l-4.9-13.275h-.5l-4.9,13.275H28.965l6.5-17.5h4ZM33.84,24.5h7.375l.825,3H32.915Z"/>
    <path d="M61.887,25.875V31.25H58.762V25.875a2.939,2.939,0,0,0-.175-1.1,1.37,1.37,0,0,0-.525-.65,2.174,2.174,0,0,0-.875-.3,8.988,8.988,0,0,0-1.25-.075h-4.05v7.5H48.762V13.75h8.375a6.5,6.5,0,0,1,2.138.325,4.077,4.077,0,0,1,1.575.963,4.206,4.206,0,0,1,.975,1.562,6.29,6.29,0,0,1,.337,2.15,5.913,5.913,0,0,1-.6,2.787,3.748,3.748,0,0,1-1.775,1.688L59.912,23v.35a3.126,3.126,0,0,1,1,.45,2.6,2.6,0,0,1,.675.775A2.5,2.5,0,0,1,61.887,25.875ZM56.962,20.75c.25,0,.495-.008.738-.025a1.829,1.829,0,0,0,.637-.15,1.041,1.041,0,0,0,.45-.4,1.5,1.5,0,0,0,.175-.8v-1.25a1.388,1.388,0,0,0-.175-.75,1.134,1.134,0,0,0-.45-.413,1.852,1.852,0,0,0-.637-.174,7.192,7.192,0,0,0-.738-.038H51.887v4h5.075Z"/>
    <path d="M65.74,14.175V13.75h3.125v17.5H65.74V14.175Z"/>
    <path d="M88.674,31.25H85.325l-4.9-13.275h-.5l-4.9,13.275H71.674l6.5-17.5h4ZM76.549,24.5h7.375l.825,3H75.624Z"/>
    <path d="M91.472,13.875V13.75h8.475a5.95,5.95,0,0,1,1.937.288,3.52,3.52,0,0,1,2.276,2.275,5.978,5.978,0,0,1,.287,1.937,4.183,4.183,0,0,1-.162,1.163,4.526,4.526,0,0,1-.451,1.049,4.1,4.1,0,0,1-.687.875,4.512,4.512,0,0,1-.875.663v.2a5.085,5.085,0,0,1,1.4.563,3.464,3.464,0,0,1,.988.875,3.74,3.74,0,0,1,.587,1.162,4.93,4.93,0,0,1,.2,1.45,6.17,6.17,0,0,1-.35,2.162,4.322,4.322,0,0,1-.987,1.575,3.983,3.983,0,0,1-1.563.951,6.386,6.386,0,0,1-2.05.312H91.472V13.875Zm9.775,5.5v-1.25a1.511,1.511,0,0,0-.175-.788,1.027,1.027,0,0,0-.45-.412,1.852,1.852,0,0,0-.637-.15c-.242-.016-.488-.025-.738-.025H94.6v4h4.65a7.177,7.177,0,0,0,.738-.038,2,2,0,0,0,.637-.162,1.021,1.021,0,0,0,.45-.412A1.454,1.454,0,0,0,101.247,19.375Zm-1,8.875a5.456,5.456,0,0,0,.738-.05,1.561,1.561,0,0,0,.637-.225,1.345,1.345,0,0,0,.45-.488,1.768,1.768,0,0,0,.175-.862v-1.25a1.852,1.852,0,0,0-.175-.875,1.218,1.218,0,0,0-.45-.487,1.7,1.7,0,0,0-.637-.213,5.456,5.456,0,0,0-.738-.05H94.6v4.5h5.65Z"/>
    <path d="M111.794,28.25h6.625v3h-9.75V13.75h3.125v14.5Z"/>
    <path d="M132.216,13.75v3h-8.375v4h7.375v3h-7.375v4.5h8.375v3h-11.5V13.75Z"/>
  </g>
</svg>
